<?xml version="1.0" standalone="no"?>
<!DOCTYPE svg PUBLIC "-//W3C//DTD SVG 20010904//EN"
 "http://www.w3.org/TR/2001/REC-SVG-20010904/DTD/svg10.dtd">
<svg version="1.0" xmlns="http://www.w3.org/2000/svg"
 width="500.000000pt" height="500.000000pt" viewBox="0 0 500.000000 500.000000"
 preserveAspectRatio="xMidYMid meet">

<g transform="translate(0.000000,500.000000) scale(0.100000,-0.100000)"
fill="#fff" stroke="none">
<path d="M503 3393 c3 -21 11 -167 18 -325 12 -267 14 -288 31 -288 17 0 18
15 18 262 0 146 4 258 9 253 4 -6 57 -124 116 -262 l109 -253 218 0 c124 0
218 4 218 9 0 8 -111 263 -240 551 l-38 85 -232 3 -232 2 5 -37z"/>
<path d="M2050 3148 c-63 -154 -123 -301 -132 -325 l-18 -43 28 0 c26 0 31 9
132 265 l105 265 3 -265 2 -265 199 0 198 0 7 288 c3 158 9 304 12 325 l6 37
-213 0 -214 0 -115 -282z"/>
<path d="M2814 3387 c7 -48 25 -423 26 -534 l0 -73 194 0 193 0 7 268 c3 147
9 293 12 325 l6 57 -222 0 -222 0 6 -43z"/>
<path d="M4158 3373 c-23 -32 -126 -143 -228 -248 -335 -341 -333 -339 -303
-343 22 -3 66 38 317 291 160 162 309 309 331 326 l40 31 -57 0 -57 0 -43 -57z"/>
<path d="M530 2143 c0 -131 -18 -502 -26 -560 l-6 -43 51 0 c50 0 50 0 46 28
-13 77 -25 305 -25 483 0 192 -1 199 -20 199 -19 0 -20 -7 -20 -107z"/>
<path d="M1040 2244 c0 -3 38 -92 83 -197 46 -106 119 -274 163 -374 l79 -183
35 0 35 0 139 348 c77 191 146 362 153 380 l14 33 -31 -3 c-30 -3 -34 -9 -75
-108 -24 -58 -47 -104 -51 -103 -5 0 -29 49 -54 107 l-45 106 -222 0 c-123 0
-223 -3 -223 -6z"/>
<path d="M2166 1938 c-4 -172 -9 -332 -12 -355 l-6 -43 222 0 222 0 -6 33 c-4
17 -9 177 -13 355 l-6 322 -197 0 -197 0 -7 -312z"/>
<path d="M2840 2143 c0 -130 -17 -486 -26 -554 l-7 -49 223 0 222 0 -6 58 c-3
31 -8 191 -12 355 l-7 297 -193 0 -194 0 0 -107z"/>
<path d="M3537 2188 c26 -35 115 -148 196 -253 160 -205 267 -358 267 -381 0
-12 45 -14 293 -14 l292 0 -78 71 c-77 71 -185 202 -402 492 l-110 146 -253 0
-253 1 48 -62z"/>
</g>
</svg>
